<mxfile host="app.diagrams.net" modified="2024-06-25T05:46:15.038Z" agent="Mozilla/5.0 (Windows NT 10.0; Win64; x64) AppleWebKit/537.36 (KHTML, like Gecko) Chrome/109.0.0.0 Safari/537.36" etag="Lz3nEV8zPUXOn-p1jNUL" version="24.6.2" type="github">
  <diagram name="Page-1" id="SWp7KG87iLD4J5ExIvlq">
    <mxGraphModel dx="1434" dy="764" grid="1" gridSize="10" guides="1" tooltips="1" connect="1" arrows="1" fold="1" page="1" pageScale="1" pageWidth="850" pageHeight="1100" math="0" shadow="0">
      <root>
        <mxCell id="0" />
        <mxCell id="1" parent="0" />
        <mxCell id="BjtWqsfojUPZs4aWKGKw-1" value="&lt;&lt;Client&gt;&gt;&#xa;CarOwner" style="swimlane;fontStyle=1;align=center;verticalAlign=top;childLayout=stackLayout;horizontal=1;startSize=48;horizontalStack=0;resizeParent=1;resizeParentMax=0;resizeLast=0;collapsible=0;marginBottom=0;" vertex="1" parent="1">
          <mxGeometry x="150" y="190" width="201" height="88" as="geometry" />
        </mxCell>
        <mxCell id="BjtWqsfojUPZs4aWKGKw-2" style="line;strokeWidth=1;fillColor=none;align=left;verticalAlign=middle;spacingTop=-1;spacingLeft=3;spacingRight=3;rotatable=0;labelPosition=right;points=[];portConstraint=eastwest;strokeColor=inherit;" vertex="1" parent="BjtWqsfojUPZs4aWKGKw-1">
          <mxGeometry y="48" width="201" height="8" as="geometry" />
        </mxCell>
        <mxCell id="BjtWqsfojUPZs4aWKGKw-3" value="+void service(ICarService)" style="text;strokeColor=none;fillColor=none;align=left;verticalAlign=top;spacingLeft=4;spacingRight=4;overflow=hidden;rotatable=0;points=[[0,0.5],[1,0.5]];portConstraint=eastwest;" vertex="1" parent="BjtWqsfojUPZs4aWKGKw-1">
          <mxGeometry y="56" width="201" height="32" as="geometry" />
        </mxCell>
        <mxCell id="BjtWqsfojUPZs4aWKGKw-4" value="&lt;&lt;interface&gt;&gt;&#xa;ICarService" style="swimlane;fontStyle=1;align=center;verticalAlign=top;childLayout=stackLayout;horizontal=1;startSize=48;horizontalStack=0;resizeParent=1;resizeParentMax=0;resizeLast=0;collapsible=0;marginBottom=0;" vertex="1" parent="1">
          <mxGeometry x="443" y="190" width="120" height="88" as="geometry" />
        </mxCell>
        <mxCell id="BjtWqsfojUPZs4aWKGKw-5" style="line;strokeWidth=1;fillColor=none;align=left;verticalAlign=middle;spacingTop=-1;spacingLeft=3;spacingRight=3;rotatable=0;labelPosition=right;points=[];portConstraint=eastwest;strokeColor=inherit;" vertex="1" parent="BjtWqsfojUPZs4aWKGKw-4">
          <mxGeometry y="48" width="120" height="8" as="geometry" />
        </mxCell>
        <mxCell id="BjtWqsfojUPZs4aWKGKw-6" value="+void service()" style="text;strokeColor=none;fillColor=none;align=left;verticalAlign=top;spacingLeft=4;spacingRight=4;overflow=hidden;rotatable=0;points=[[0,0.5],[1,0.5]];portConstraint=eastwest;" vertex="1" parent="BjtWqsfojUPZs4aWKGKw-4">
          <mxGeometry y="56" width="120" height="32" as="geometry" />
        </mxCell>
        <mxCell id="BjtWqsfojUPZs4aWKGKw-7" value="CarService" style="swimlane;fontStyle=1;align=center;verticalAlign=top;childLayout=stackLayout;horizontal=1;startSize=29.2;horizontalStack=0;resizeParent=1;resizeParentMax=0;resizeLast=0;collapsible=0;marginBottom=0;" vertex="1" parent="1">
          <mxGeometry x="241" y="405.57" width="120" height="66.2" as="geometry" />
        </mxCell>
        <mxCell id="BjtWqsfojUPZs4aWKGKw-8" style="line;strokeWidth=1;fillColor=none;align=left;verticalAlign=middle;spacingTop=-1;spacingLeft=3;spacingRight=3;rotatable=0;labelPosition=right;points=[];portConstraint=eastwest;strokeColor=inherit;" vertex="1" parent="BjtWqsfojUPZs4aWKGKw-7">
          <mxGeometry y="29.2" width="120" height="8" as="geometry" />
        </mxCell>
        <mxCell id="BjtWqsfojUPZs4aWKGKw-9" value="+void service()" style="text;strokeColor=none;fillColor=none;align=left;verticalAlign=top;spacingLeft=4;spacingRight=4;overflow=hidden;rotatable=0;points=[[0,0.5],[1,0.5]];portConstraint=eastwest;" vertex="1" parent="BjtWqsfojUPZs4aWKGKw-7">
          <mxGeometry y="37.2" width="120" height="29" as="geometry" />
        </mxCell>
        <mxCell id="BjtWqsfojUPZs4aWKGKw-10" value="PatternTest" style="swimlane;fontStyle=1;align=center;verticalAlign=top;childLayout=stackLayout;horizontal=1;startSize=29.2;horizontalStack=0;resizeParent=1;resizeParentMax=0;resizeLast=0;collapsible=0;marginBottom=0;" vertex="1" parent="1">
          <mxGeometry x="230" y="60" width="158" height="66.2" as="geometry" />
        </mxCell>
        <mxCell id="BjtWqsfojUPZs4aWKGKw-11" style="line;strokeWidth=1;fillColor=none;align=left;verticalAlign=middle;spacingTop=-1;spacingLeft=3;spacingRight=3;rotatable=0;labelPosition=right;points=[];portConstraint=eastwest;strokeColor=inherit;" vertex="1" parent="BjtWqsfojUPZs4aWKGKw-10">
          <mxGeometry y="29.2" width="158" height="8" as="geometry" />
        </mxCell>
        <mxCell id="BjtWqsfojUPZs4aWKGKw-12" value="+void main(String[])" style="text;strokeColor=none;fillColor=none;align=left;verticalAlign=top;spacingLeft=4;spacingRight=4;overflow=hidden;rotatable=0;points=[[0,0.5],[1,0.5]];portConstraint=eastwest;" vertex="1" parent="BjtWqsfojUPZs4aWKGKw-10">
          <mxGeometry y="37.2" width="158" height="29" as="geometry" />
        </mxCell>
        <mxCell id="BjtWqsfojUPZs4aWKGKw-13" value="&lt;&lt;abstract&gt;&gt;&#xa;BaseCarServiceDecorator" style="swimlane;fontStyle=1;align=center;verticalAlign=top;childLayout=stackLayout;horizontal=1;startSize=47.333333333333336;horizontalStack=0;resizeParent=1;resizeParentMax=0;resizeLast=0;collapsible=0;marginBottom=0;" vertex="1" parent="1">
          <mxGeometry x="453" y="370" width="479" height="151.33333333333334" as="geometry" />
        </mxCell>
        <mxCell id="BjtWqsfojUPZs4aWKGKw-14" value="+ ICarService carService" style="text;strokeColor=none;fillColor=none;align=left;verticalAlign=top;spacingLeft=4;spacingRight=4;overflow=hidden;rotatable=0;points=[[0,0.5],[1,0.5]];portConstraint=eastwest;" vertex="1" parent="BjtWqsfojUPZs4aWKGKw-13">
          <mxGeometry y="47.333333333333336" width="479" height="32" as="geometry" />
        </mxCell>
        <mxCell id="BjtWqsfojUPZs4aWKGKw-15" style="line;strokeWidth=1;fillColor=none;align=left;verticalAlign=middle;spacingTop=-1;spacingLeft=3;spacingRight=3;rotatable=0;labelPosition=right;points=[];portConstraint=eastwest;strokeColor=inherit;" vertex="1" parent="BjtWqsfojUPZs4aWKGKw-13">
          <mxGeometry y="79.33333333333334" width="479" height="8" as="geometry" />
        </mxCell>
        <mxCell id="BjtWqsfojUPZs4aWKGKw-16" value="+BaseCarServiceDecorator BaseCarServiceDecorator(ICarService)" style="text;strokeColor=none;fillColor=none;align=left;verticalAlign=top;spacingLeft=4;spacingRight=4;overflow=hidden;rotatable=0;points=[[0,0.5],[1,0.5]];portConstraint=eastwest;" vertex="1" parent="BjtWqsfojUPZs4aWKGKw-13">
          <mxGeometry y="87.33333333333334" width="479" height="32" as="geometry" />
        </mxCell>
        <mxCell id="BjtWqsfojUPZs4aWKGKw-17" value="+void service()" style="text;strokeColor=none;fillColor=none;align=left;verticalAlign=top;spacingLeft=4;spacingRight=4;overflow=hidden;rotatable=0;points=[[0,0.5],[1,0.5]];portConstraint=eastwest;" vertex="1" parent="BjtWqsfojUPZs4aWKGKw-13">
          <mxGeometry y="119.33333333333334" width="479" height="32" as="geometry" />
        </mxCell>
        <mxCell id="BjtWqsfojUPZs4aWKGKw-18" value="ExtraCoatingCarServiceDecorator" style="swimlane;fontStyle=1;align=center;verticalAlign=top;childLayout=stackLayout;horizontal=1;startSize=27.428571428571427;horizontalStack=0;resizeParent=1;resizeParentMax=0;resizeLast=0;collapsible=0;marginBottom=0;" vertex="1" parent="1">
          <mxGeometry x="133" y="600" width="520" height="89.42857142857143" as="geometry" />
        </mxCell>
        <mxCell id="BjtWqsfojUPZs4aWKGKw-19" style="line;strokeWidth=1;fillColor=none;align=left;verticalAlign=middle;spacingTop=-1;spacingLeft=3;spacingRight=3;rotatable=0;labelPosition=right;points=[];portConstraint=eastwest;strokeColor=inherit;" vertex="1" parent="BjtWqsfojUPZs4aWKGKw-18">
          <mxGeometry y="27.428571428571427" width="520" height="8" as="geometry" />
        </mxCell>
        <mxCell id="BjtWqsfojUPZs4aWKGKw-20" value="+ExtraCoatingCarServiceDecorator ExtraCoatingCarServiceDecorator(ICarService)" style="text;strokeColor=none;fillColor=none;align=left;verticalAlign=top;spacingLeft=4;spacingRight=4;overflow=hidden;rotatable=0;points=[[0,0.5],[1,0.5]];portConstraint=eastwest;" vertex="1" parent="BjtWqsfojUPZs4aWKGKw-18">
          <mxGeometry y="35.42857142857143" width="520" height="27" as="geometry" />
        </mxCell>
        <mxCell id="BjtWqsfojUPZs4aWKGKw-21" value="+void service()" style="text;strokeColor=none;fillColor=none;align=left;verticalAlign=top;spacingLeft=4;spacingRight=4;overflow=hidden;rotatable=0;points=[[0,0.5],[1,0.5]];portConstraint=eastwest;" vertex="1" parent="BjtWqsfojUPZs4aWKGKw-18">
          <mxGeometry y="62.42857142857143" width="520" height="27" as="geometry" />
        </mxCell>
        <mxCell id="BjtWqsfojUPZs4aWKGKw-22" value="OilChangeCarServiceDecorator" style="swimlane;fontStyle=1;align=center;verticalAlign=top;childLayout=stackLayout;horizontal=1;startSize=27.428571428571427;horizontalStack=0;resizeParent=1;resizeParentMax=0;resizeLast=0;collapsible=0;marginBottom=0;" vertex="1" parent="1">
          <mxGeometry x="750" y="600" width="440" height="89.42857142857143" as="geometry" />
        </mxCell>
        <mxCell id="BjtWqsfojUPZs4aWKGKw-23" style="line;strokeWidth=1;fillColor=none;align=left;verticalAlign=middle;spacingTop=-1;spacingLeft=3;spacingRight=3;rotatable=0;labelPosition=right;points=[];portConstraint=eastwest;strokeColor=inherit;" vertex="1" parent="BjtWqsfojUPZs4aWKGKw-22">
          <mxGeometry y="27.428571428571427" width="440" height="8" as="geometry" />
        </mxCell>
        <mxCell id="BjtWqsfojUPZs4aWKGKw-24" value="+OilChangeCarServiceDecorator OilChangeCarServiceDecorator(ICarService)" style="text;strokeColor=none;fillColor=none;align=left;verticalAlign=top;spacingLeft=4;spacingRight=4;overflow=hidden;rotatable=0;points=[[0,0.5],[1,0.5]];portConstraint=eastwest;" vertex="1" parent="BjtWqsfojUPZs4aWKGKw-22">
          <mxGeometry y="35.42857142857143" width="440" height="27" as="geometry" />
        </mxCell>
        <mxCell id="BjtWqsfojUPZs4aWKGKw-25" value="+void service()" style="text;strokeColor=none;fillColor=none;align=left;verticalAlign=top;spacingLeft=4;spacingRight=4;overflow=hidden;rotatable=0;points=[[0,0.5],[1,0.5]];portConstraint=eastwest;" vertex="1" parent="BjtWqsfojUPZs4aWKGKw-22">
          <mxGeometry y="62.42857142857143" width="440" height="27" as="geometry" />
        </mxCell>
        <mxCell id="BjtWqsfojUPZs4aWKGKw-26" value="Decorator Design Pattern " style="align=left;spacingLeft=4;" vertex="1" parent="1">
          <mxGeometry x="570" y="70" width="195" height="34" as="geometry" />
        </mxCell>
        <mxCell id="BjtWqsfojUPZs4aWKGKw-27" value="" style="curved=1;dashed=1;startArrow=none;endArrow=none;rounded=0;entryX=1;entryY=0.25;entryDx=0;entryDy=0;entryPerimeter=0;" edge="1" parent="1" target="BjtWqsfojUPZs4aWKGKw-2">
          <mxGeometry relative="1" as="geometry">
            <Array as="points" />
            <mxPoint x="440" y="240" as="sourcePoint" />
            <mxPoint x="180" y="290" as="targetPoint" />
          </mxGeometry>
        </mxCell>
        <mxCell id="BjtWqsfojUPZs4aWKGKw-28" value="implements" style="curved=1;dashed=1;startArrow=block;startSize=16;startFill=0;endArrow=none;exitX=0.24;exitY=1;entryX=0.5;entryY=-0.01;rounded=0;" edge="1" parent="1" target="BjtWqsfojUPZs4aWKGKw-7">
          <mxGeometry relative="1" as="geometry">
            <Array as="points">
              <mxPoint x="312" y="329" />
            </Array>
            <mxPoint x="332.79999999999995" y="278" as="sourcePoint" />
          </mxGeometry>
        </mxCell>
        <mxCell id="BjtWqsfojUPZs4aWKGKw-29" value="implements" style="curved=1;dashed=1;startArrow=block;startSize=16;startFill=0;endArrow=none;exitX=0.917;exitY=1.094;entryX=0.33;entryY=0;rounded=0;exitDx=0;exitDy=0;exitPerimeter=0;" edge="1" parent="1" source="BjtWqsfojUPZs4aWKGKw-6" target="BjtWqsfojUPZs4aWKGKw-13">
          <mxGeometry relative="1" as="geometry">
            <Array as="points">
              <mxPoint x="568" y="329" />
            </Array>
          </mxGeometry>
        </mxCell>
        <mxCell id="BjtWqsfojUPZs4aWKGKw-30" value="extends" style="curved=1;startArrow=block;startSize=16;startFill=0;endArrow=none;exitX=0.115;exitY=1.146;entryX=0.5;entryY=0;rounded=0;exitDx=0;exitDy=0;exitPerimeter=0;" edge="1" parent="1" source="BjtWqsfojUPZs4aWKGKw-17" target="BjtWqsfojUPZs4aWKGKw-18">
          <mxGeometry relative="1" as="geometry">
            <Array as="points">
              <mxPoint x="402" y="548" />
            </Array>
            <mxPoint x="472.4299999999996" y="514.3333333333333" as="sourcePoint" />
          </mxGeometry>
        </mxCell>
        <mxCell id="BjtWqsfojUPZs4aWKGKw-31" value="extends" style="curved=1;startArrow=block;startSize=16;startFill=0;endArrow=none;entryX=0.5;entryY=0;rounded=0;entryDx=0;entryDy=0;" edge="1" parent="1" target="BjtWqsfojUPZs4aWKGKw-22">
          <mxGeometry relative="1" as="geometry">
            <Array as="points">
              <mxPoint x="1000" y="560" />
            </Array>
            <mxPoint x="900" y="520" as="sourcePoint" />
            <mxPoint x="991" y="588.75" as="targetPoint" />
          </mxGeometry>
        </mxCell>
        <mxCell id="BjtWqsfojUPZs4aWKGKw-32" value="carService" style="curved=1;startArrow=none;endArrow=open;endSize=12;exitX=0.64;exitY=0;entryX=1;entryY=0.63;rounded=0;" edge="1" parent="1" source="BjtWqsfojUPZs4aWKGKw-13" target="BjtWqsfojUPZs4aWKGKw-4">
          <mxGeometry relative="1" as="geometry">
            <Array as="points">
              <mxPoint x="790" y="329" />
            </Array>
          </mxGeometry>
        </mxCell>
        <mxCell id="BjtWqsfojUPZs4aWKGKw-33" value="1" style="edgeLabel;resizable=0;labelBackgroundColor=none;fontSize=12;align=left;verticalAlign=top;" vertex="1" parent="BjtWqsfojUPZs4aWKGKw-32">
          <mxGeometry x="1" relative="1" as="geometry" />
        </mxCell>
      </root>
    </mxGraphModel>
  </diagram>
</mxfile>
